<?xml version="1.0" encoding="utf-8"?>
<!-- Generator: Adobe Illustrator 19.1.0, SVG Export Plug-In . SVG Version: 6.00 Build 0)  -->
<svg version="1.1" id="Layer_1" xmlns="http://www.w3.org/2000/svg" xmlns:xlink="http://www.w3.org/1999/xlink" x="0px" y="0px"
	 viewBox="-493 251 291.8 300" style="enable-background:new -493 251 291.8 300;" xml:space="preserve">
<style type="text/css">
	.rhfs-st0{fill:#526670;}
	.rhfs-st1{fill:#7497A7;}
	.rhfs-st2{fill:#5b9ed4;opacity:0;}
	.rhfs-st3{fill:#231F20;}
	.rhfs-st4{opacity:0.8;clip-path:url(#SVGID_2_);}
	.rhfs-st5{fill:#FFCF85;}
	.rhfs-st6{fill:#6D3317;}

	.right-key-4 {animation: right-key-4 2s linear infinite;}
  @keyframes right-key-4 {
    0% {opacity: 0;}
    9% {opacity: 1;}
    18%,100% {opacity: 0;}
  }

  .right-key-3 { animation: right-key-3 2s linear infinite;}
  @keyframes right-key-3 {
    0%, 27% { opacity: 0;}
    36% { opacity: 1;}
    45%,100% { opacity: 0;}
  }

  .right-key-2 { animation: right-key-2 2s linear infinite;}
  @keyframes right-key-2 {
    0%, 54% { opacity: 0;}
    63% { opacity: 1;}
    72%,100% { opacity: 0;}
  }

  .right-key-1 { animation: right-key-1 2s linear infinite;}
  @keyframes right-key-1 {
    0%, 81% { opacity: 0;}
    90% { opacity: 1;}
    100% { opacity: 0;}
  }
</style>
<path class="rhfs-st0" d="M-266.1,251L-266.1,251l-47.2,0c-2.2,0-4,1.7-4,3.8v54.5c0,2.1,1.8,3.8,4,3.8h47.2c2.2,0,4-1.7,4-3.8v-54.5
	C-262.1,252.7-263.9,251-266.1,251z M-268,303.4c0,1.6-1.4,3-3.2,3h-42.5c-1.7,0-3.2-1.3-3.2-3v-49.1c0-1.6,1.4-3,3.2-3h42.5
	c1.7,0,3.2,1.3,3.2,3V303.4z"/>
<path class="rhfs-st0" d="M-441.8,251H-489c-2.2,0-4,1.7-4,3.8v54.5c0,2.1,1.8,3.8,4,3.8h47.2c2.2,0,4-1.7,4-3.8v-54.5
	C-437.9,252.7-439.6,251-441.8,251z M-443.8,303.4c0,1.6-1.4,3-3.2,3h-42.5c-1.7,0-3.2-1.3-3.2-3v-49.1c0-1.6,1.4-3,3.2-3h42.5
	c1.7,0,3.2,1.3,3.2,3V303.4z"/>
<path class="rhfs-st1" d="M-441.8,251H-489c-1.1,0-2.1,0.4-2.9,1.2l0.2,0.2c0.6-0.6,1.4-1,2.3-1h42.5c1.7,0,3.2,1.3,3.2,3v49.1
	c0,0.8-0.3,1.4-0.8,2l5.7,6.4c0.7-0.7,1.1-1.6,1.1-2.6v-54.5C-437.9,252.7-439.6,251-441.8,251z"/>
<g>
	<path class="rhfs-st0" d="M-383.3,251h-47.2c-2.2,0-4,1.7-4,3.8v54.5c0,2.1,1.8,3.8,4,3.8h47.2c2.2,0,4-1.7,4-3.8v-54.5
		C-379.3,252.7-381.1,251-383.3,251z M-385.2,303.4c0,1.6-1.4,3-3.2,3h-42.5c-1.7,0-3.2-1.3-3.2-3v-49.1c0-1.6,1.4-3,3.2-3h42.5
		c1.7,0,3.2,1.3,3.2,3V303.4z"/>
	<path class="rhfs-st0" d="M-447,251h-42.5c-2,0-3.6,1.5-3.6,3.4v49.1c0,1.9,1.6,3.4,3.6,3.4h42.5c2,0,3.6-1.5,3.6-3.4v-49.1
		C-443.4,252.5-445,251-447,251z M-444.2,303.4c0,1.4-1.2,2.5-2.7,2.5h-42.5c-1.5,0-2.7-1.1-2.7-2.5v-49.1c0-1.4,1.2-2.5,2.7-2.5
		h42.5c1.5,0,2.7,1.1,2.7,2.5V303.4z"/>
</g>
<path class="rhfs-st1" d="M-383.3,251L-383.3,251h-47.2c-1.2,0-2.2,0.5-2.9,1.2l0.2,0.2c0.6-0.6,1.4-1,2.3-1h42.5c1.7,0,3.2,1.3,3.2,3
	v49.1c0,0.8-0.3,1.4-0.8,2l5.7,6.4c0.7-0.7,1.1-1.6,1.1-2.6v-54.5C-379.3,252.7-381.1,251-383.3,251z"/>
<path class="rhfs-st0" d="M-388.4,251.9c1.5,0,2.7,1.1,2.7,2.5v49.1c0,1.4-1.2,2.5-2.7,2.5h-42.5c-1.5,0-2.7-1.1-2.7-2.5v-49.1
	c0-1.4,1.2-2.5,2.7-2.5L-388.4,251.9 M-388.4,251h-42.5c-2,0-3.6,1.5-3.6,3.4v49.1c0,1.9,1.6,3.4,3.6,3.4h42.5c2,0,3.6-1.5,3.6-3.4
	v-49.1C-384.8,252.5-386.4,251-388.4,251L-388.4,251z M-324.7,251h-47.2c-2.2,0-4,1.7-4,3.8v54.5c0,2.1,1.8,3.8,4,3.8h47.2
	c2.2,0,4-1.7,4-3.8v-54.5C-320.7,252.7-322.5,251-324.7,251L-324.7,251z M-372.2,306.4c-1.7,0-3.2-1.3-3.2-3v-49.1
	c0-1.6,1.4-3,3.2-3h42.5c1.7,0,3.2,1.3,3.2,3v49.1c0,1.6-1.4,3-3.2,3C-329.8,306.4-372.2,306.4-372.2,306.4z"/>
<path class="rhfs-st1" d="M-324.7,251L-324.7,251l-47.2,0c-1.2,0-2.2,0.5-2.9,1.2l0.2,0.2c0.6-0.6,1.4-1,2.3-1h42.5c1.7,0,3.2,1.3,3.2,3
	v49.1c0,0.8-0.3,1.4-0.8,2l5.7,6.4c0.7-0.7,1.1-1.6,1.1-2.6v-54.5C-320.7,252.7-322.5,251-324.7,251z"/>
<path class="rhfs-st0" d="M-329.8,251.9c1.5,0,2.7,1.1,2.7,2.5v49.1c0,1.4-1.2,2.5-2.7,2.5h-42.5c-1.5,0-2.7-1.1-2.7-2.5v-49.1
	c0-1.4,1.2-2.5,2.7-2.5L-329.8,251.9 M-329.8,251h-42.5c-2,0-3.6,1.5-3.6,3.4v49.1c0,1.9,1.6,3.4,3.6,3.4h42.5c2,0,3.6-1.5,3.6-3.4
	v-49.1C-326.2,252.5-327.8,251-329.8,251L-329.8,251z"/>
<g id="right-key-base">
	<path class="rhfs-st2 right-key-1" d="M-489.4,306.4c-1.7,0-3.2-1.3-3.2-3v-49.1c0-1.6,1.4-3,3.2-3h42.5c1.7,0,3.2,1.3,3.2,3v49.1c0,1.6-1.4,3-3.2,3
		H-489.4z"/>
	<path class="rhfs-st2 right-key-2" d="M-430.8,306.4c-1.7,0-3.2-1.3-3.2-3v-49.1c0-1.6,1.4-3,3.2-3h42.5c1.7,0,3.2,1.3,3.2,3v49.1c0,1.6-1.4,3-3.2,3
		H-430.8z"/>
	<path class="rhfs-st2 right-key-3" d="M-372.2,306.4c-1.7,0-3.2-1.3-3.2-3v-49.1c0-1.6,1.4-3,3.2-3h42.5c1.7,0,3.2,1.3,3.2,3v49.1c0,1.6-1.4,3-3.2,3
		C-329.8,306.4-372.2,306.4-372.2,306.4z"/>
	<path class="rhfs-st2 right-key-4" d="M-313.6,306.4c-1.7,0-3.2-1.3-3.2-3v-49.1c0-1.6,1.4-3,3.2-3h42.5c1.7,0,3.2,1.3,3.2,3v49.1c0,1.6-1.4,3-3.2,3
		H-313.6z"/>
</g>
<path class="rhfs-st0" d="M-271.2,251.9c1.5,0,2.7,1.1,2.7,2.5v49.1c0,1.4-1.2,2.5-2.7,2.5h-42.5c-1.5,0-2.7-1.1-2.7-2.5v-49.1
	c0-1.4,1.2-2.5,2.7-2.5L-271.2,251.9 M-271.2,251h-42.5c-2,0-3.6,1.5-3.6,3.4v49.1c0,1.9,1.6,3.4,3.6,3.4h42.5c2,0,3.6-1.5,3.6-3.4
	v-49.1C-267.6,252.5-269.2,251-271.2,251L-271.2,251z"/>
<g>
	<path class="rhfs-st3" d="M-307.5,272.3c-0.3,0.1-0.7,0.1-1.2,0.1c-0.5,0-1,0-1.5,0c-0.1-0.8-0.1-1.7-0.1-2.5c1-0.2,2-0.2,2.8-0.1
		c0.1,0.5,0.1,1,0.1,1.4C-307.4,271.7-307.4,272-307.5,272.3L-307.5,272.3z M-310.1,263.3c0.4-0.1,0.8-0.1,1.2-0.1c0.5,0,1,0,1.5,0
		c0.1,0.9,0.1,1.7,0.1,2.5c-1,0.2-2,0.2-2.8,0.1c-0.1-0.5-0.1-1-0.1-1.4C-310.2,264-310.2,263.6-310.1,263.3L-310.1,263.3z
		 M-310,294.4c0.2,0,0.4-0.1,0.6-0.1s0.3,0,0.5,0c0.8,0,1.3,0.1,1.5,0.4c0.2,0.3,0.3,0.9,0.3,1.6c0,1-0.2,1.9-0.7,2.5
		c-0.4,0.5-1,0.8-1.7,0.8c-0.6,0-1-0.1-1.3-0.4c0.1-0.2,0.4-0.4,0.7-0.7c0.2,0.1,0.4,0.2,0.6,0.2c0.4,0,0.6-0.2,0.8-0.5
		c0.2-0.3,0.2-0.7,0.2-1.1c-0.4-0.2-1-0.2-1.7-0.2C-310.2,295.9-310.2,295.1-310,294.4L-310,294.4z M-309.9,287.8
		c0.4-0.1,0.8-0.1,1.2-0.1c0.4,0,1,0,1.5,0c0.1,0.9,0.1,1.7,0.1,2.5c-1,0.2-2,0.2-2.8,0.1c-0.1-0.5-0.1-1-0.1-1.4
		C-310,288.4-310,288.1-309.9,287.8L-309.9,287.8z"/>
</g>
<g>
	<path class="rhfs-st3" d="M-483.3,276.1c0.2,0.9,0.7,1.5,1.4,1.9c0.7,0.4,1.6,0.6,2.5,0.6c1.3,0,2.3-0.3,3.1-1c0.8-0.6,1.2-1.5,1.2-2.6
		c0.1-2.4,0.1-5,0.1-7.8c-0.1-2.8-0.2-5.8-0.5-9.1c0.1,0,0.3,0,0.5,0h1.4c0.6,0,1.1,0,1.7-0.1c0,1-0.1,2.8-0.1,5.5
		c0,2.7,0,6.1,0,10.3c0,5-2.5,7.6-7.4,7.6c-1.6,0-3.1-0.3-4.3-1c-1.2-0.6-2.1-1.7-2.6-3.3L-483.3,276.1L-483.3,276.1z"/>
</g>
<g>
	<path class="rhfs-st3" d="M-408.2,281.3c-0.4,0.1-0.9,0.1-1.3,0.1c-0.5,0-1,0-1.5,0c-0.6,0-1.1,0-1.5,0c-0.4,0-0.8-0.1-1.2-0.1
		c-0.8-0.9-1.6-1.8-2.3-2.7c-0.8-0.9-1.5-1.8-2.3-2.6c-1.9-2.3-3.6-3.9-5-4.9c-0.2,2.8-0.1,6.3,0.3,10.3c-1.7-0.1-2.9-0.1-3.6,0
		c0.3-3.1,0.4-6.6,0.4-10.5c0-2.3,0-4.5-0.1-6.5c-0.1-2-0.2-4-0.4-5.9c0.8,0,1.6-0.1,2.5-0.1c0.6,0,1,0,1.2,0.1
		c-0.2,1.7-0.3,3.5-0.4,5.2c-0.1,1.6-0.1,3.1,0,4.7c3.3-2.7,6.3-6,9-10c0.1,0,0.2,0,0.3,0h4.7c0.1,0,0.2,0,0.3,0
		c-2.4,1.8-6.2,5.5-11.6,11.1c1.5,1.7,3.2,3.5,5.3,5.4C-413.3,276.9-410.9,279-408.2,281.3L-408.2,281.3z"/>
</g>
<g>
	<path class="rhfs-st3" d="M-367.9,281.3c0.1-1.4,0.1-2.9,0.2-4.6c0.1-3.9,0.1-7.8-0.1-11.7c-0.1-2.2-0.2-4.5-0.4-6.7c0.1,0,0.2,0,0.3,0
		h1.9c0.3,0,0.6,0,0.8,0c0.2,0,0.4,0,0.6-0.1c-0.2,1.8-0.3,3.7-0.4,5.5c-0.1,1.9-0.1,3.7-0.1,5.6c0,1.5,0,3.1,0.1,4.7
		c0,1.4,0.1,2.9,0.3,4.3c0.4,0,0.8,0,1.2,0.1c0.4,0,0.8,0,1.3,0c1.1,0,2.4,0,3.7-0.1c1.4-0.1,2.9-0.2,4.6-0.4c0,0.8,0.1,1.5,0.1,2.1
		c0,0.6-0.1,1.1-0.2,1.5C-357.6,281.2-362.3,281.2-367.9,281.3L-367.9,281.3z"/>
</g>
<g>
	<g>
		<defs>
			<rect id="SVGID_1_" x="-489" y="251" width="287.8" height="300"/>
		</defs>
		<clipPath id="SVGID_2_">
			<use xlink:href="#SVGID_1_"  style="overflow:visible;"/>
		</clipPath>
		<g class="rhfs-st4">
			<path class="rhfs-st5" d="M-312.1,601c-7.6-2.9-33.6-38.8-39.3-44.6c-5-5.1-9.5-10.9-15.9-14c-6-2.9-14-3.8-19.1-7.7
				c-5.6-4.4-10.7-9.1-16.2-13.4c-6.6-5.1-12.9-8.9-19.8-13.7c-2.9-2-7.3-3.4-10-5.7c-2.4-2-4.7-5.8-6.7-8.4
				c-4.4-6-8.9-11.3-14.4-16.7c-5-4.9-11.2-9.9-14-16.4c-1.7-3.8-1.6-7.1-2.6-11c-0.9-3.7-2.8-7.3-4-10.9c-1.2-3.8-2.3-6.7-4.1-10
				c-1.7-3.1-3.9-7-4.5-10.6c-1.4-7.6,4-16.1,12.6-13.7c6.2,1.7,14.2,8.1,18.9,12.3c3.4,3,6.7,6.8,9.3,10.4c2.9,4,6.7,7.4,8.7,11.5
				c2.2,4.6,3.8,7.8,7.3,12c2.9,3.4,6,5,9.3,7.8l1.1,1.6c-1.1-3.8-1.8-7.7-1.8-11.4c-0.2-9.6-1.8-16.9-4.2-26.1
				c-2.1-8-4.4-16.8-4.9-25c-0.5-7.5-6.4-15.3-8.4-23.2c-2.3-8.9-6-16.7-9.2-24.8c-6.4-16.4-16.4-32.4-20.3-49.8
				c-1.3-6.1-1.1-15.2,3.7-19.8c7.2-6.9,13.6-2.3,18.8,4c9.7,11.7,16.1,27.1,24,39.7c5.6,9,9.8,17.1,13.5,27.2
				c2.6,7,5.4,13.9,8.2,20.8c2.1,3.4,4.5,5.4,7,4.3c7-2.9,1.4-17-0.6-21.6c-3.7-8.6-4.7-17.2-9.7-24.7c-2-2.9-3.5-6.6-5.4-9.5
				c-3.2-5-3.5-3.4-8.4-4.4c-6.9-1.4-14.5-10.8-11.4-18.1c2-4.8,15.9-8.8,21.7-9.6c8.3-1.2,16,5.2,21.7,10.7
				c8,7.7,16,15.7,21.2,25.7c4.2,8.2,6.1,17.8,7,26.9c0.6,5.4,2.2,10.1,4,15c2.5-4.1,2.1-8.8,2-13.3c-0.2-7.9,1.3-15.1,1.7-22.7
				c0.5-8.2-4.9-15.3-8.4-22.1c-3.7-7-8.1-12.9-12.4-19.3c-5-7.3-7.5-15.4,1.2-20.8c8.5-5.3,13.7,0.3,19.3,6.1
				c5.2,5.4,11.9,9,16.2,14.9c4.2,5.7,7,13.6,10.4,19.8c3,5.6,5.3,12.3,7.2,18.2c2.3,7.1,1.3,14.6,1.4,21.9c0,6,1.7,14.2-1.2,19.7
				c2.1-4,2.5-9.8,3.7-13.9c1.5-5.2,3.2-9.4,4-14.7c0.9-5.7-0.3-10.6-0.3-15.9c-0.1-6.3-0.1-12.4-0.7-18.6c-0.8-8-1.8-16.6,4.7-23.1
				c5.8-5.7,13.5-4.4,16.4,3.1c6.1,16.1,4.3,34,7.3,50.1c2.7,14.3-1.2,29.8-3.5,44.4c-1.3,8.5,1.2,16.8,1.4,24.9
				c0.1,4.4-1.7,9.4-1.1,14c0.5,4.3,2.3,8.9,3.8,13c6.8,18.8-0.1,37.9,4.8,56.4c0.5,1.8,1.1,3.6,1.8,5.4
				c3.3,8.1,10.3,14.7,14.8,22.7c8.5,15.2,22.9,27.2,33.9,40.2c10.3,12.3,26.5,19.8,34,34.4"/>
			<path class="rhfs-st6" d="M-312.1,598.7c-5.6-2.4-10.2-9.1-14-13.6c-6.1-7.1-11.8-14.5-17.7-21.8c-5-6.3-10.2-12.5-16.1-18
				c-4.9-4.5-10.3-6.5-16.5-8.5c-7-2.2-11.8-5.9-17.4-10.7c-10.8-9.2-22.5-17.6-35-24.3c-6-3.2-9.2-9.5-13.3-14.7
				c-4.5-5.7-9.4-10.8-14.6-15.8c-4.7-4.5-9.7-9.2-11.6-15.6c-1-3.3-1.1-6.8-2.2-10.2c-1.1-3.4-2.7-6.7-3.9-10.1
				c-1-2.9-2.1-5.8-3.5-8.6c-1.6-3.2-4.3-6.8-4.7-10.5c-0.5-4.4,3.2-9.1,7.5-10.1c6.4-1.5,13.4,4,18.1,7.6
				c6.3,4.8,11.2,10.3,16.1,16.5c2.3,2.9,5,5.6,6.9,8.9c1.8,3.1,3.1,6.4,5,9.4c2.2,3.3,4.8,6.1,8,8.5c2,1.5,3.9,2.8,5.3,4.8
				c-0.6-0.9,0.3-3.5,0-4.6c-1.9-7.1-1.6-14.3-2.6-21.5c-1-7.1-3-14-4.8-21c-1.9-7.4-2.6-14.8-4-22.2c-1.2-6.7-5.3-12.5-7.5-18.9
				c-4.8-14.3-10-28.3-16.5-42c-3.2-6.9-6.5-13.7-9.3-20.8c-2.4-6.2-6.1-14.5-4.6-21.2c1.2-5.5,5.2-11.8,11.7-11.5
				c6.2,0.3,10.8,6.8,14.1,11.3c8.5,11.6,14.4,25,21.9,37.3c8.2,13.3,13.2,27.8,19,42.2c1.5,3.6,6.4,13.4,11,6.8
				c1.5-2.2,1.2-5.3,1.2-7.9c-0.1-9.2-4.7-17.4-7.4-26.1c-2.2-7-5.3-12.7-8.7-19.1c-2.4-4.4-3.8-8.9-9.1-9.5
				c-5.5-0.7-10.1-3.9-12.7-8.9c-2.6-4.9,0.4-7.4,4.7-9.6c4.6-2.3,9.8-4,14.8-4.8c6.3-1.1,11.8,1.4,16.8,5.2
				c10.7,8.1,21.7,19.6,27.7,31.8c3.2,6.4,4.9,13.5,5.9,20.5c0.6,3.6,0.8,7.3,1.6,10.9c0.4,1.7,0.9,3.3,1.4,4.9
				c0.3,0.8,0.5,1.6,0.8,2.4c0.6,1.7,0.3,3.2,1.6,1c1.9-3.2,1.4-8.2,1.4-11.8c-0.1-6.5,0.8-12.9,1.4-19.4c0.3-3.1,0.4-6.2,0.3-9.3
				c-0.2-5.8-2.8-10.8-5.6-15.7c-3.6-6.4-7.1-12.7-11.3-18.7c-2.6-3.8-9-10.7-8.1-15.6c1-5.6,9.2-9.5,14.3-8.1
				c6,1.6,10,7.9,14.5,11.7c5.3,4.4,10.6,8.3,14.2,14.4c3.5,6,6.3,12.5,9.4,18.7c3.2,6.5,6.3,14.2,7.2,21.5
				c0.7,5.2,0.1,10.6,0.2,15.8c0.1,5.4,1.1,10.7-1.2,15.8c-0.6,1.3,0.6,3.3,0,4.6c1.5-3.2,2.1-6.5,2.8-9.9c0.9-4.2,2.3-8.1,3.4-12.2
				c1.5-5.2,2-10.2,1.9-15.5c-0.1-7.5-0.6-15.1-0.9-22.6c-0.3-8-2.7-16.6,2.2-23.7c3.4-4.8,10.1-8.2,15.2-3.9
				c5.5,4.6,6.4,15.4,7.2,22.1c1.1,8.4,1.2,16.9,2.2,25.3c0.5,4.2,1.4,8.3,1.8,12.5c0.5,5.9-0.4,11.9-1.3,17.8
				c-1.2,7.6-3.2,15.2-3.2,22.8c0,4.4,0.2,8.7,0.7,13c0.6,4.5,0.9,8.4,0.3,12.9c-0.3,2.2-0.5,4.4-0.5,6.6c-0.1,5.2,1,9.8,2.8,14.8
				c3.8,10.8,4.4,20.8,4.1,32.3c-0.1,4.4-0.2,8.8,0,13.2c0.3,7.6,1.4,15.4,5,22.3c3.6,6.9,9.1,12.5,13.1,19.2
				c9.2,15.5,22.6,27.4,34.3,40.9c10.6,12.2,26.1,19.9,34,34.4c-0.6-1.2,0.6-3.4,0-4.6c-7-12.9-20-20.2-30.2-30.3
				c-5.5-5.4-10.3-11.4-15.6-17c-5.7-6-11.5-12-16.5-18.7c-4.8-6.4-8.7-13.4-13.5-19.9c-4.8-6.5-8.3-13.1-9.7-21.1
				c-2.4-14,0.7-28.3-1.5-42.4c-1.2-8.3-7-16.8-5.8-25.2c0.5-3.8,0.8-7.5,0.7-11.3c-0.1-3.6-0.6-7.2-1-10.7
				c-0.7-5.9-0.2-11.1,0.8-16.9c1.4-8.3,3-16.7,3.2-25.2c0.4-12.9-2.2-25.5-3.2-38.3c-0.6-8.8-0.9-38.7-16-34.9
				c-13,3.3-11.1,20.8-10.2,30.9c0.6,6.1,0.6,12.2,0.7,18.3c0.1,4.8,0.9,9.4-0.2,14.2c-1,4.6-2.7,8.9-3.9,13.4
				c-1.1,4.3-1.5,8.6-3.4,12.7v4.6c3.8-8.4,1.3-20.5,1.4-29.4c0.1-12.2-2.7-23.4-8.3-34.3c-3.3-6.4-5.9-13.3-9.9-19.3
				c-4.2-6.2-10.7-10-16-15c-4.4-4.2-9.1-10.6-16-9.2c-5.5,1.2-9.9,5.6-10.2,11.2c-0.6,10.9,6.3,18.2,12,26.9
				c3.9,6,7.7,12.5,10.7,19c3.5,7.5,1.7,14.7,1.2,22.6c-0.3,3.9-0.2,7.7-0.2,11.5c0,2.1-0.1,4.1-0.7,6c-0.1,0.5-1,2.8-1.3,2.8
				c-0.1,0-0.8-2.2-0.9-2.4c-1.4-3.8-2.5-7.7-3-11.7c-1.1-7.7-2.1-15.3-4.9-22.6c-2.8-7.3-7.2-13.7-12.4-19.6
				c-7.9-9-20.1-24-33.6-22c-7.7,1.2-21.1,4.1-21.6,13.5c-0.5,9.7,4.8,17.6,14.8,19c5.5,0.8,7,6.6,9.5,10.9c3.9,6.9,6.5,13.3,9,20.9
				c1.7,5.1,4.1,9.9,5.4,15.2c0.3,1.1,0.5,2.1,0.7,3.2c0.2,1.4,0.5,0.1-0.2,1.7c-0.8,2-2.2,3.7-4.5,3.6c-3.1-0.1-5-3.9-6.1-6.3
				c-1.9-4.2-3.5-8.6-5.1-13c-2.8-7.3-5.5-14.6-9.1-21.6c-3.6-6.9-7.9-13.3-11.6-20.1c-3.8-6.8-7.3-13.8-11.4-20.5
				c-3.6-5.8-7.9-13-14-16.6c-5.8-3.4-12.2-0.2-15,5.5c-3.6,7.4-2.1,18.2,0.1,25.8c4.5,15.6,12.9,29.8,19,44.8
				c3.1,7.6,6.4,15.1,8.7,23c2,7,5.8,13.1,7.9,20c1,3.2,1.1,6.6,1.5,9.9c0.6,4.3,1.5,8.5,2.5,12.6c1.8,7.3,4,14.5,5.1,21.9
				c1.2,7.8,0.8,15.4,2.8,23.1v-4.6c-3.2-4.5-8.6-6.9-12-11.4c-4.2-5.7-6.7-12.1-11.2-17.6c-4.8-5.7-9-11.5-14.8-16.4
				c-4.8-4-10.3-8.6-16.5-10.2c-10.2-2.6-13.2,7.8-12.9,15.7c0.3,6.5,4.3,11.6,6.7,17.4c2.7,6.6,5.7,13.7,6.9,20.8
				c2.6,14.8,16.6,23.1,25.6,34.1c4.2,5.2,7.7,12.4,13.6,16c6.2,3.7,12.4,7.3,18.4,11.3c6.5,4.4,12.5,9.2,18.5,14.2
				c5.8,4.9,10.9,8.3,18.2,10.5c6.8,2.1,12.2,5,17.3,10.1c3.1,3.1,6.2,6.4,9,9.8c6.4,7.7,12.4,15.6,18.7,23.3
				c3.4,4.1,6.8,8.1,10.4,11.9c2.2,2.2,4.5,5,7.5,6.2C-312.6,603-311.5,599-312.1,598.7L-312.1,598.7z"/>
		</g>
	</g>
</g>
<path class="rhfs-st1" d="M-266.1,251L-266.1,251l-47.2,0c-1.2,0-2.2,0.5-2.9,1.2l0.2,0.2c0.6-0.6,1.4-1,2.3-1h42.5c1.7,0,3.2,1.3,3.2,3
	v49.1c0,0.8-0.3,1.4-0.8,2l5.7,6.4c0.7-0.7,1.1-1.6,1.1-2.6v-54.5C-262.1,252.7-263.9,251-266.1,251z"/>
</svg>
