<?xml version="1.0" encoding="utf-8"?>
<!-- Generator: Adobe Illustrator 19.1.0, SVG Export Plug-In . SVG Version: 6.00 Build 0)  -->
<svg version="1.1" id="Layer_1" xmlns="http://www.w3.org/2000/svg" xmlns:xlink="http://www.w3.org/1999/xlink" x="0px" y="0px"
	 viewBox="-494 251 289.2 300" style="enable-background:new -494 251 289.2 300;" xml:space="preserve">
<style type="text/css">
	.lhfs-st0{fill:#526670;}
	.lhfs-st1{fill:#7497A7;}
	.lhfs-st2{fill:#5b9ed4;opacity:0;}
	.lhfs-st3{fill:#231F20;}
	.lhfs-st4{opacity:0.8;clip-path:url(#SVGID_2_);}
	.lhfs-st5{fill:#FFCF85;}
	.lhfs-st6{fill:#6D3317;}

  .key-1 {animation: key-1 2s linear infinite;}
  @keyframes key-1 {
    0% {opacity: 0;}
    9% {opacity: 1;}
    18%,100% {opacity: 0;}
  }

  .key-2 { animation: key-2 2s linear infinite; }
  @keyframes key-2 {
    0%, 27% { opacity: 0;}
    36% { opacity: 1;}
    45%,100% { opacity: 0;}
  }

  .key-3 { animation: key-3 2s linear infinite; }
  @keyframes key-3 {
    0%, 54% { opacity: 0;}
    63% { opacity: 1;}
    72%,100% { opacity: 0;}
  }

  .key-4 { animation: key-4 2s linear infinite; }
  @keyframes key-4 {
    0%, 81% { opacity: 0;}
    90% { opacity: 1;}
    100% { opacity: 0;}
  }
</style>
<path class="lhfs-st0" d="M-416.9,251L-416.9,251h-47.2c-2.2,0-4,1.7-4,3.8v54.5c0,2.1,1.8,3.8,4,3.8h47.2c2.2,0,4-1.7,4-3.8v-54.5
	C-412.9,252.7-414.7,251-416.9,251z M-418.9,303.4c0,1.6-1.4,3-3.2,3h-42.5c-1.7,0-3.2-1.3-3.2-3v-49.1c0-1.6,1.4-3,3.2-3h42.5
	c1.7,0,3.2,1.3,3.2,3V303.4z"/>
<path class="lhfs-st1" d="M-416.9,251L-416.9,251h-47.2c-1.2,0-2.2,0.5-2.9,1.2l0.2,0.2c0.6-0.6,1.4-1,2.3-1h42.5c1.7,0,3.2,1.3,3.2,3
	v49.1c0,0.8-0.3,1.4-0.8,2l5.7,6.4c0.7-0.7,1.1-1.6,1.1-2.6v-54.5C-412.9,252.7-414.7,251-416.9,251z"/>
<path class="lhfs-st0" d="M-358.3,251h-47.2c-2.2,0-4,1.7-4,3.8v54.5c0,2.1,1.8,3.8,4,3.8h47.2c2.2,0,4-1.7,4-3.8v-54.5
	C-354.3,252.7-356.1,251-358.3,251z M-360.3,303.4c0,1.6-1.4,3-3.2,3h-42.5c-1.7,0-3.2-1.3-3.2-3v-49.1c0-1.6,1.4-3,3.2-3h42.5
	c1.7,0,3.2,1.3,3.2,3V303.4z"/>
<path class="lhfs-st1" d="M-358.3,251h-47.2c-1.2,0-2.2,0.5-2.9,1.2l0.2,0.2c0.6-0.6,1.4-1,2.3-1h42.5c1.7,0,3.2,1.3,3.2,3v49.1
	c0,0.8-0.3,1.4-0.8,2l5.7,6.4c0.7-0.7,1.1-1.6,1.1-2.6v-54.5C-354.3,252.7-356.1,251-358.3,251z"/>
<path class="lhfs-st0" d="M-299.7,251L-299.7,251l-47.2,0c-2.2,0-4,1.7-4,3.8v54.5c0,2.1,1.8,3.8,4,3.8h47.2c2.2,0,4-1.7,4-3.8v-54.5
	C-295.8,252.7-297.5,251-299.7,251z M-301.7,303.4c0,1.6-1.4,3-3.2,3h-42.5c-1.7,0-3.2-1.3-3.2-3v-49.1c0-1.6,1.4-3,3.2-3h42.5
	c1.7,0,3.2,1.3,3.2,3V303.4z"/>
<path class="lhfs-st1" d="M-299.7,251L-299.7,251l-47.2,0c-1.2,0-2.2,0.5-2.9,1.2l0.2,0.2c0.6-0.6,1.4-1,2.3-1h42.5c1.7,0,3.2,1.3,3.2,3
	v49.1c0,0.8-0.3,1.4-0.8,2l5.7,6.4c0.7-0.7,1.1-1.6,1.1-2.6v-54.5C-295.8,252.7-297.5,251-299.7,251z"/>
<path class="lhfs-st0" d="M-241.2,251L-241.2,251l-47.2,0c-2.2,0-4,1.7-4,3.8v54.5c0,2.1,1.8,3.8,4,3.8h47.2c2.2,0,4-1.7,4-3.8v-54.5
	C-237.2,252.7-239,251-241.2,251z M-243.1,303.4c0,1.6-1.4,3-3.2,3h-42.5c-1.7,0-3.2-1.3-3.2-3v-49.1c0-1.6,1.4-3,3.2-3h42.5
	c1.7,0,3.2,1.3,3.2,3V303.4z"/>
<path class="lhfs-st0" d="M-304.9,251.9c1.5,0,2.7,1.1,2.7,2.5v49.1c0,1.4-1.2,2.5-2.7,2.5h-42.5c-1.5,0-2.7-1.1-2.7-2.5v-49.1
	c0-1.4,1.2-2.5,2.7-2.5L-304.9,251.9 M-304.9,251h-42.5c-2,0-3.6,1.5-3.6,3.4v49.1c0,1.9,1.6,3.4,3.6,3.4h42.5c2,0,3.6-1.5,3.6-3.4
	v-49.1C-301.3,252.5-302.9,251-304.9,251L-304.9,251z"/>
<g id="key-base">
	<path class="key-1 lhfs-st2" d="M-464.5,306.4c-1.7,0-3.2-1.3-3.2-3v-49.1c0-1.6,1.4-3,3.2-3h42.5c1.7,0,3.2,1.3,3.2,3v49.1c0,1.6-1.4,3-3.2,3
		H-464.5z"/>
	<path class="key-2 lhfs-st2" d="M-405.9,306.4c-1.7,0-3.2-1.3-3.2-3v-49.1c0-1.6,1.4-3,3.2-3h42.5c1.7,0,3.2,1.3,3.2,3v49.1c0,1.6-1.4,3-3.2,3
		H-405.9L-405.9,306.4z"/>
	<path class="key-3 lhfs-st2" d="M-347.3,306.4c-1.7,0-3.2-1.3-3.2-3v-49.1c0-1.6,1.4-3,3.2-3h42.5c1.7,0,3.2,1.3,3.2,3v49.1c0,1.6-1.4,3-3.2,3
		H-347.3z"/>
	<path class="key-4 lhfs-st2" d="M-288.7,306.4c-1.7,0-3.2-1.3-3.2-3v-49.1c0-1.6,1.4-3,3.2-3h42.5c1.7,0,3.2,1.3,3.2,3v49.1c0,1.6-1.4,3-3.2,3
		H-288.7z"/>
</g>
<path class="lhfs-st0" d="M-246.3,251.9c1.5,0,2.7,1.1,2.7,2.5v49.1c0,1.4-1.2,2.5-2.7,2.5h-42.5c-1.5,0-2.7-1.1-2.7-2.5v-49.1
	c0-1.4,1.2-2.5,2.7-2.5L-246.3,251.9 M-246.3,251h-42.5c-2,0-3.6,1.5-3.6,3.4v49.1c0,1.9,1.6,3.4,3.6,3.4h42.5c2,0,3.6-1.5,3.6-3.4
	v-49.1C-242.7,252.5-244.3,251-246.3,251L-246.3,251z"/>
<g>
	<path class="lhfs-st3" d="M-453.3,258.5c1.6-0.2,2.7-0.2,3.6,0c1.1,3.7,2.4,7.4,3.8,11.1c1.5,3.9,3,7.8,4.6,11.7c-0.3,0-0.6,0-1-0.1
		c-0.8,0-1.5,0-2.3,0c-0.3,0-0.7,0-1,0.1c-0.2-1.1-0.5-2.1-0.9-3.2c-0.4-1.1-0.8-2.1-1.2-3.2c-1.4-0.1-2.7-0.2-4.1-0.2
		c-1.4,0-2.8,0.1-4.4,0.2c-0.4,1.2-0.9,2.5-1.2,3.8c-0.3,1-0.5,1.9-0.7,2.6c-0.8,0-1.5-0.1-2.1-0.1c-0.6,0-1.2,0-1.7,0.1
		c2.2-5.3,4-9.8,5.4-13.6C-455,263.9-454,260.9-453.3,258.5L-453.3,258.5z M-451.7,263.1c-0.8,1.6-1.4,3.2-2.1,4.8
		c-0.5,1.4-1,2.8-1.3,4.3c0.1,0,0.5,0.1,1.2,0.1c0.7,0,1.5,0,2.3,0h1.2c0.6,0,1.1,0,1.5-0.1s0.6-0.1,0.7-0.1
		c-0.4-1.7-0.9-3.3-1.5-4.9C-450.3,265.8-451,264.4-451.7,263.1L-451.7,263.1z"/>
</g>
<g>
	<path class="lhfs-st3" d="M-398.8,276c0.3,0.9,1,1.7,2.1,2.2c0.9,0.5,1.9,0.7,3,0.7c1.9,0,3.3-0.4,4.2-1.1c1-0.8,1.5-1.8,1.5-3.1
		c0-2.4-2-3.7-6-3.7c-2.6,0-4.5-0.4-5.8-1.4c-1.3-1-2-2.6-2-4.7c0-2.3,1-4.1,3-5.4c1.6-1,3.5-1.5,5.6-1.5c1.7,0,3.4,0.4,5,1.1
		c1.6,0.8,2.5,1.9,2.9,3.3c-0.9,0.5-1.9,0.9-3.1,1.1c-0.9-1.8-2.6-2.8-5.1-2.8c-3.4,0-5.2,1.4-5.2,4.3c0,2.2,1.9,3.3,5.7,3.3
		c5.4,0,8.1,2.1,8.1,6.2c0,2.5-1,4.4-3.1,5.6c-1.6,1-3.7,1.4-6.2,1.4c-1.7,0-3.4-0.4-5-1.1c-1.6-0.8-2.6-1.9-3.1-3.4
		C-401,276.6-399.9,276.2-398.8,276L-398.8,276z"/>
</g>
<path class="lhfs-st0" d="M-363.5,251L-363.5,251l-42.5,0c-2,0-3.6,1.5-3.6,3.4v49.1c0,1.9,1.6,3.4,3.6,3.4h42.5c2,0,3.6-1.5,3.6-3.4
	v-49.1C-359.9,252.5-361.5,251-363.5,251z M-360.7,303.4c0,1.4-1.2,2.5-2.7,2.5h-42.5c-1.5,0-2.7-1.1-2.7-2.5v-49.1
	c0-1.4,1.2-2.5,2.7-2.5h42.5l0,0c1.5,0,2.7,1.1,2.7,2.5V303.4z"/>
<g>
	<path class="lhfs-st3" d="M-342.9,281.2c0.1-2.3,0.1-4.8,0.1-7.4c0-3.1,0-6-0.1-8.6c-0.1-2.3-0.2-4.6-0.4-6.9c2.3-0.1,4.4-0.1,6.2-0.1
		c1.8,0,3.5,0.1,4.9,0.2c1.5,0.1,2.8,0.5,3.9,1.2c1,0.7,1.9,1.6,2.6,2.7c0.7,1.1,1.1,2.4,1.4,3.8c0.3,1.4,0.4,2.8,0.4,4.3
		c0,6.9-2.7,10.6-8.1,10.9c-1.8,0.1-3.6,0.2-5.4,0.2C-339.2,281.4-341,281.3-342.9,281.2L-342.9,281.2z M-339.5,278.4
		c1.4,0.1,2.8,0.2,4.2,0.2c1.2,0,2.3-0.1,3.3-0.2c1.1-0.2,2-0.5,2.6-0.9c0.6-0.4,1.2-1,1.5-1.7c0.4-0.7,0.6-1.5,0.7-2.5
		c0.1-0.9,0.1-2,0.1-3.2c0-1-0.1-2.1-0.2-3.1c-0.2-1-0.4-1.9-0.9-2.7c-0.4-0.8-1-1.5-1.6-2c-0.7-0.5-1.6-0.9-2.6-1
		c-2.2-0.3-4.6-0.3-7.3,0c-0.1,3.6-0.2,6.8-0.1,9.6C-339.8,273.7-339.7,276.2-339.5,278.4L-339.5,278.4z"/>
</g>
<g>
	<path class="lhfs-st3" d="M-284.6,281.3c0.1-1.9,0.2-3.9,0.3-5.9c0.1-2,0.1-4.1,0.1-6.3c0-2.1,0-4.1-0.1-6.2c-0.1-1.6-0.2-3.2-0.3-4.7
		c4.4,0.3,9.1,0.2,14-0.1c0,0.4,0.1,0.8,0.1,1.1c0,0.3,0,0.7,0,1c0,0.6,0,1-0.1,1.4c-1.1-0.2-2.6-0.3-4.4-0.3c-1.8-0.1-4,0-6.6,0.1
		c-0.2,2.3-0.2,4.7,0,7c2.2,0.1,4.1,0.1,5.9,0c1.7-0.1,3.3-0.2,4.6-0.3c0,1.1,0,2.2,0,3.3c-0.8-0.1-2.1-0.1-3.8-0.1
		c-1.7,0-3.9,0-6.5,0c-0.1,1.1-0.1,2.4-0.1,4.2c0,1.7,0.2,3.7,0.4,6C-281.8,281.3-282.9,281.3-284.6,281.3L-284.6,281.3z"/>
</g>
<path class="lhfs-st1" d="M-241.2,251L-241.2,251l-47.2,0c-1.2,0-2.2,0.5-2.9,1.2l0.2,0.2c0.6-0.6,1.4-1,2.3-1h42.5c1.7,0,3.2,1.3,3.2,3
	v49.1c0,0.8-0.3,1.4-0.8,2l5.7,6.4c0.7-0.7,1.1-1.6,1.1-2.6v-54.5C-237.2,252.7-239,251-241.2,251z"/>
<path class="lhfs-st0" d="M-422,251L-422,251l-42.5,0c-2,0-3.6,1.5-3.6,3.4v49.1c0,1.9,1.6,3.4,3.6,3.4h42.5c2,0,3.6-1.5,3.6-3.4v-49.1
	C-418.5,252.5-420.1,251-422,251z M-419.3,303.4c0,1.4-1.2,2.5-2.7,2.5h-42.5c-1.5,0-2.7-1.1-2.7-2.5v-49.1c0-1.4,1.2-2.5,2.7-2.5
	h42.5v0c1.5,0,2.7,1.1,2.7,2.5V303.4z"/>
<g>
	<g>
		<defs>
			<rect id="SVGID_1_" x="-494" y="251" width="289.2" height="300"/>
		</defs>
		<clipPath id="SVGID_2_">
			<use xlink:href="#SVGID_1_"  style="overflow:visible;"/>
		</clipPath>
		<g class="lhfs-st4">
			<path class="lhfs-st5" d="M-517.2,601.8c8.5-9,18.5-15.9,26.4-25.6c7.9-9.8,14.3-20.7,22.3-30.4c10.2-12.3,22.2-25.4,27.3-41.2
				c0.6-1.8,1.1-3.6,1.4-5.5c3.6-18.8-4.5-37.4,0.9-56.6c1.2-4.2,2.7-8.9,2.9-13.2c0.2-4.6-1.9-9.5-2.1-13.9
				c-0.4-8.1,1.5-16.5-0.4-24.9c-3.3-14.4-8.3-29.6-6.6-44c1.9-16.4-1.1-34,3.9-50.5c2.3-7.7,10-9.5,16.1-4.3c7,6,6.6,14.6,6.3,22.7
				c-0.2,6.2,0.2,12.4,0.6,18.6c0.3,5.2-0.6,10.2,0.8,15.8c1.2,5.2,3.2,9.4,5,14.4c1.5,4,2.3,9.8,4.7,13.6
				c-3.3-5.3-2.2-13.6-2.6-19.6c-0.5-7.3-1.9-14.7-0.2-21.9c1.5-6.1,3.2-12.9,5.9-18.7c2.9-6.4,5.2-14.5,9-20.5
				c3.9-6.2,10.3-10.2,15.1-16c5.2-6.2,10-12.1,18.9-7.5c9,4.8,7.1,13,2.6,20.6c-3.9,6.6-7.9,12.8-11.1,20.1
				c-3.1,7.1-8,14.5-6.9,22.6c1,7.6,2.9,14.7,3.3,22.5c0.2,4.6,0.2,9.2,2.9,13.2c1.5-4.9,2.8-9.8,3-15.2c0.4-9.2,1.5-18.9,5.2-27.4
				c4.4-10.4,11.9-18.9,19.4-27.1c5.3-5.9,12.5-12.8,20.9-12.2c5.8,0.4,19.9,3.4,22.3,8.1c3.6,7-3.2,16.9-10.1,18.9
				c-4.8,1.4-5.2-0.2-8.1,5c-1.6,3-2.9,6.8-4.7,9.9c-4.5,7.8-4.9,16.5-8,25.3c-1.6,4.7-6.3,19.1,0.9,21.6c2.6,0.9,4.8-1.3,6.7-4.8
				c2.3-7.1,4.6-14.2,6.7-21.3c3-10.4,6.6-18.8,11.6-28.1c7-13.1,12.3-28.9,21.2-41.3c4.8-6.6,10.9-11.6,18.5-5.3
				c5.2,4.3,6,13.4,5.1,19.5c-2.6,17.6-11.5,34.3-16.8,51.1c-2.6,8.3-5.8,16.4-7.4,25.4c-1.5,8-6.8,16.2-6.8,23.7
				c0,8.2-1.6,17.1-3.2,25.3c-1.8,9.4-2.9,16.8-2.4,26.4c0.2,3.8-0.2,7.7-1,11.5l1-1.7c3.1-3,6-4.8,8.7-8.4
				c3.2-4.4,4.5-7.7,6.4-12.4c1.7-4.2,5.2-7.9,7.8-12.1c2.3-3.7,5.4-7.8,8.5-11c4.4-4.5,11.9-11.4,18-13.6c8.5-3,14.4,5.2,13.6,12.8
				c-0.4,3.7-2.4,7.7-3.8,10.9c-1.6,3.4-2.4,6.4-3.4,10.3c-0.9,3.7-2.6,7.4-3.3,11.2c-0.7,3.9-0.4,7.2-1.8,11.1
				c-2.4,6.6-8.3,12.1-12.9,17.3c-5.1,5.7-9.2,11.4-13.2,17.6c-1.7,2.8-3.8,6.7-6.1,8.9c-2.5,2.4-6.7,4.1-9.5,6.4
				c-6.5,5.2-12.6,9.6-18.8,15.1c-5.2,4.6-10,9.7-15.3,14.5c-4.7,4.3-12.7,5.8-18.5,9.1c-6.2,3.6-10.3,9.7-14.9,15.1
				c-5.3,6.2-28.7,43.8-36.1,47.3"/>
			<path class="lhfs-st6" d="M-517.2,604.1c5.8-6,12.3-11.3,18.4-17c6.3-6.1,11.5-12.9,16.6-20.1c4.9-7,9.8-14.1,15.3-20.6
				c5.1-6.2,10.4-12.2,15-18.8c8.3-11.8,13.2-24.2,13.2-38.6c0-5.9-0.4-11.8-1-17.6c-1-10-1.2-19.1,1.6-28.9c1.4-5,2.3-9.8,2.2-15
				c-0.1-6.3-2.3-12.1-1.9-18.5c0.2-4.4,0.4-8.9,0.3-13.3c-0.3-8.4-3.2-16.6-5-24.8c-0.9-4.1-1.7-8.2-2.2-12.4
				c-0.5-4.7-0.1-9.1,0.3-13.8c0.6-8.7,0.2-17.5,0.5-26.2c0.3-7.1,0.2-19.4,5.8-24.8c4.8-4.6,11.6-1.8,15.4,2.7
				c5.1,6.1,4.2,14,4.2,21.4c0,6.9,0.7,13.7,0.6,20.6c0,5.6,0,10.9,1.7,16.4c1.3,4.2,3.2,8.2,4.6,12.3c1.4,4.2,2.1,8.5,4.2,12.4
				c-0.6-1.2,0.6-3.4,0-4.6c-2.8-5.1-2.4-10.9-2.5-16.6c-0.1-7.1-1.7-14.1-0.1-21.1c1.4-6.1,3.2-12.1,5.7-17.9
				c2.6-6.1,4.6-12.6,7.8-18.5c3-5.4,7.5-9.2,11.9-13.4c4.2-4,7.7-10.1,13-12.7c4.6-2.2,10.3-0.4,13.8,3.1c4.3,4.4,1.8,8.9-0.9,13.6
				c-3.2,5.6-6.7,11-9.5,16.8c-3,6.2-6.8,12.8-8.1,19.6c-1.6,8.2,0.8,16.6,2.1,24.6c0.9,5.8,0.3,12.2,2,17.8
				c0.1,0.5,1.3,4.1,1.9,4.1c0.2,0,1.3-4.5,1.4-4.9c0.9-3.4,1.4-6.8,1.6-10.4c1-14.9,3.8-28,12.7-40.3c4.1-5.7,8.9-11.1,13.7-16.2
				c4.6-4.8,10.4-9.9,17.5-10.2c4.8-0.2,10,1.2,14.5,2.7c5.2,1.6,10.1,3.7,10.2,9.8l0-4.3c-0.6,5.8-4.5,11.6-10,13.8
				c-1.9,0.8-4.3,0.6-6.1,1.5c-2.2,1.2-3.3,4.4-4.3,6.6c-3.2,7-6.5,13.4-8.3,21c-1.4,5.8-3.4,11.4-4.8,17.2
				c-1.2,4.6-3.4,16,1.2,19.6c6.8,5.3,10.2-10.1,11.3-13.8c2.5-7.9,4.6-16,7.7-23.7c2.9-7.2,6.6-14,10-21c3.4-7,6.4-14.2,9.9-21.2
				c4.4-8.9,16.3-33,28.5-19.1c4.4,5.1,4.3,11.8,3.1,17.9c-1.6,8-4.4,15.7-7.3,23.3c-5.8,15.1-12.1,30.4-15.6,46.3
				c-1.8,8.2-6.3,16-7.2,24.3c-0.9,8.1-1.2,16.1-2.7,24.1c-1.5,8.1-3.1,16.2-3.2,24.5c-0.1,5.7,0.2,11.1-0.9,16.8
				c-0.2,1.2,0.6,3.6,0,4.6c2.7-4.5,7.7-7.1,10.7-11.5c3.6-5.4,5.2-11.8,9-17.1c7.9-11,15.6-22.7,27.9-29.3
				c4.6-2.5,9.9-2.9,13.6,1.5c1.3,1.6,2.8,4.2,2.8,6.4c0,3.2-2.4,7-3.7,9.9c-2.6,6-4.5,12.7-6.1,19.1c-1.8,7-1.3,13.3-5.6,19.6
				c-3.9,5.7-9.2,10.5-13.6,15.9c-4.4,5.4-8,11.1-11.7,17c-3.8,6-9.2,8.2-14.6,12.4c-5.9,4.6-11.9,9-17.4,14
				c-5.4,4.8-10.2,10.4-15.8,14.9c-5.1,4.1-11.7,5.2-17.3,8.3c-8.1,4.4-14,13.1-19.3,20.5c-5.7,8.2-11.2,16.5-17.1,24.6
				c-4.1,5.6-8.9,14.3-15.3,17.6c-0.6,0.3,0.6,4.3,0,4.6c5.8-3,10.2-10.7,14-15.8c5.7-7.8,11-15.7,16.5-23.6
				c5.3-7.6,11-16.3,18.6-21.7c5.6-3.9,12.5-4.9,18.2-8.6c6.3-4.1,11.3-10.6,16.8-15.6c5.8-5.2,12-9.8,18.1-14.5
				c2.6-2,5.4-3.6,8.2-5.4c3-2,5-4.6,6.9-7.7c3.9-6.4,8.1-12.5,12.9-18.3c4.6-5.4,10.1-10.3,13.6-16.5c3.5-6.4,3-14.1,5.2-21
				c2.2-6.8,4.6-13.6,7.1-20.3c2.6-6.7,3.2-18.1-3.9-22.4c-6.1-3.7-13.1,1.5-17.7,5.3c-6.2,4.9-11.6,10.7-16,17.3
				c-2.4,3.6-5.2,7-7.4,10.8c-1.9,3.3-3,7-4.8,10.4c-1.9,3.5-4.2,6.6-7.2,9.2c-2,1.8-4.1,3.3-5.5,5.7v4.6c1.3-7,0.7-13.6,1-20.6
				c0.6-12.1,4.3-23.8,5.3-35.9c0.4-4.7,0.2-9.3,1.6-13.9c1.5-5.1,4-9.9,5.2-15c2.9-11.6,6.2-23,10.3-34.2c6.2-17,15-34.1,14.6-52.6
				c-0.1-7.3-2.7-17.2-11.5-18.2c-9.6-1-16.1,13.3-19.7,20.2c-5.1,9.8-9.2,20.2-14.3,30c-5.4,10.2-9.2,20.8-12.5,31.8
				c-1.1,3.5-7.4,30-14.7,19.7c-3.5-5.1,1.8-14.8,3.2-19.9c1.3-4.8,2.1-9.7,3.8-14.4c1.9-5.3,4.7-10.9,7.4-15.8
				c1.6-3,2.7-3.9,5.8-4.5c4.6-1,8.3-3.4,10.8-7.4c2.5-3.9,3.2-9.6,2.3-14.2c-1.4-7.1-12.5-8.7-18.3-9.7c-11.1-2-18.4,3.7-25.6,11.6
				c-8.6,9.5-17.3,19.6-21.2,32c-1.8,5.6-2.6,11.5-3.1,17.3c-0.3,3.8-0.3,7.5-1,11.2c-0.1,0.8-1.3,8.8-2.3,9.1
				c-2.4,0.6-3-15-3.2-16.8c-0.7-6.9-2.6-13.6-3.2-20.6c0,1.1,0,2.3,0,3.4c0-0.5,0-1.1,0-1.6l0,1.1c0.7-8,5.1-15.6,8.5-22.7
				c3.6-7.4,9-14,11.9-21.7c3.3-8.6,1.5-20.2-9.4-21.9c-7.2-1.1-11.4,5.6-15.6,10.2c-5.3,5.9-11.8,10.3-15.6,17.5
				c-3.7,7-6.6,14.9-9.3,22.3c-2.5,6.9-4.8,14.4-4.9,21.8c-0.1,6.3,0.7,12.5,1,18.8c0.3,6.6-0.7,13.6,2.6,19.7v-4.6
				c-2.2-3.9-2.9-8.2-4.2-12.4c-1.5-4.7-3.7-9.2-5-14c-1.8-6.8-1-14.2-1.4-21.2c-0.4-6.6-0.1-13.2-0.2-19.9
				c-0.1-7.2-1.5-14.9-8.1-19c-17.9-11.1-17.5,25.3-17.6,34.6c-0.1,16.9-2.4,33.1,1,49.8c1.2,5.9,2.8,11.7,4.2,17.6
				c1.6,6.6,1.1,12.9,0.9,19.7c0,2-0.1,4,0,5.9c0.1,4.9,1.7,9.4,2.1,14.2l0-1.1l0,1.5l0-3.4c-0.7,8.7-4.4,16.7-4.8,25.4
				c-0.2,4.3-0.1,8.7,0.1,13c0.6,10.4,2.9,21,0.9,31.4c-1.6,8.2-5.4,15.8-10,22.8c-4.4,6.8-9.6,13-14.8,19.1
				c-6,7.1-11.4,14.5-16.8,22.2c-5,7.2-10.1,14.3-16.4,20.4c-6.4,6.2-13.4,11.8-19.6,18.2C-517.9,600.3-516.4,603.3-517.2,604.1
				L-517.2,604.1z"/>
		</g>
	</g>
</g>
</svg>
